<?xml version="1.0" encoding="UTF-8" standalone="no"?>
<!-- Created with Inkscape (http://www.inkscape.org/) -->

<svg
   xmlns:dc="http://purl.org/dc/elements/1.1/"
   xmlns:cc="http://creativecommons.org/ns#"
   xmlns:rdf="http://www.w3.org/1999/02/22-rdf-syntax-ns#"
   xmlns:svg="http://www.w3.org/2000/svg"
   xmlns="http://www.w3.org/2000/svg"
   xmlns:sodipodi="http://sodipodi.sourceforge.net/DTD/sodipodi-0.dtd"
   xmlns:inkscape="http://www.inkscape.org/namespaces/inkscape"
   id="svg2997"
   version="1.1"
   inkscape:version="0.48.5 r10040"
   width="501"
   height="351"
   sodipodi:docname="logo.svg">
  <metadata
     id="metadata3003">
    <rdf:RDF>
      <cc:Work
         rdf:about="">
        <dc:format>image/svg+xml</dc:format>
        <dc:type
           rdf:resource="http://purl.org/dc/dcmitype/StillImage" />
        <dc:title></dc:title>
      </cc:Work>
    </rdf:RDF>
  </metadata>
  <defs
     id="defs3001" />
  <sodipodi:namedview
     pagecolor="#ffffff"
     bordercolor="#666666"
     borderopacity="1"
     objecttolerance="10"
     gridtolerance="10"
     guidetolerance="10"
     inkscape:pageopacity="0"
     inkscape:pageshadow="2"
     inkscape:window-width="970"
     inkscape:window-height="684"
     id="namedview2999"
     showgrid="false"
     inkscape:zoom="1.1417166"
     inkscape:cx="267.18786"
     inkscape:cy="184.96198"
     inkscape:window-x="443"
     inkscape:window-y="76"
     inkscape:window-maximized="0"
     inkscape:current-layer="svg2997" />
  <path
     style="fill:#ffffff"
     d="m 225.94182,334.37002 c -3.15108,-1.43032 -13.36381,-13.9077 -17.9544,-21.93575 -4.17712,-7.30495 -2.46159,-15.10961 5.52102,-25.11747 4.8873,-6.12724 4.05693,-7.09109 -5.96376,-6.92248 -9.51104,0.16005 -21.28084,3.21703 -34.11971,8.86195 -14.33735,6.30376 -30.15393,7.98954 -47.85329,5.10035 -12.87318,-2.10137 -20.03964,-4.49067 -23.32576,-7.77679 -2.675151,-2.67514 -2.875241,-3.37247 -2.491211,-8.68171 0.681481,-9.42137 9.250361,-25.5038 20.857571,-39.14637 5.56298,-6.53847 15.13534,-20.15739 14.56732,-20.72542 -0.22011,-0.22011 -7.71365,4.35307 -16.65232,10.16261 -15.27522,9.9279 -19.101401,11.75395 -20.360301,9.71701 -0.50187,-0.81205 1.35126,-17.22196 3.551411,-31.44843 0.60571,-3.91662 2.32665,-9.18525 4.06325,-12.43957 4.06368,-7.61516 5.45926,-11.8187 7.86405,-23.68679 1.12329,-5.54368 2.65309,-10.70025 3.39954,-11.45906 2.49503,-2.53634 6.188,-0.37732 12.43833,7.27181 6.49952,7.95408 10.63887,11.80704 15.24195,14.18739 l 2.91406,1.50692 -0.60964,-4.49534 c -0.78145,-5.76215 1.04182,-17.77098 4.03364,-26.5673 5.0289,-14.78557 15.46423,-31.98163 29.62735,-48.82197 8.75204,-10.406424 10.68505,-11.152374 28.9708,-11.179904 16.38481,-0.02466 25.49208,-1.7758 36.90996,-7.09701 12.22874,-5.69912 17.98184,-11.256077 16.49696,-15.934533 -1.39798,-4.404651 -28.55113,-23.317989 -43.74929,-30.473269 -22.53,-10.607098 -40.76788,-13.47993 -86.50915,-13.626924 -26.09955,-0.08387 -28.60647,-0.891934 -9.82729,-3.16764 12.3656,-1.498493 52.54889,-1.370051 65.58877,0.209649 23.43698,2.839243 44.40886,8.806937 63.5,18.069367 16.20115,7.860295 28.38247,16.133856 40.89169,27.773648 5.74813,5.348615 13.86506,12.807002 18.03763,16.574202 24.13443,21.789724 39.36782,57.123664 42.45478,98.474164 0.77369,10.36377 0.91931,10.85208 4.97303,16.67639 3.17656,4.56404 4.42124,7.5247 5.20072,12.37077 1.70702,10.61263 6.29153,18.06012 14.66928,23.8301 5.81893,4.00765 7.27707,7.02735 4.97818,10.30948 -0.81633,1.16547 -1.27453,2.92094 -1.01823,3.90104 0.64622,2.47116 -4.82176,6.86187 -9.46652,7.60147 -11.54648,1.8386 -12.69387,2.37329 -38.72056,18.04419 -17.92075,10.79023 -29.31996,14.41139 -45.5,14.45389 l -9.5,0.0249 -2.33697,7.38582 c -3.09653,9.78634 -10.47656,22.68199 -16.66303,29.11648 -4.51637,4.69744 -5.79672,5.41095 -13.23701,7.37671 -11.20284,2.95984 -17.07081,3.43825 -20.89285,1.70337 z M 353.57168,218.75175 c 3.87367,-3.87367 1.37194,-10 -4.08356,-10 -5.66288,0 -8.23241,7.26442 -3.69393,10.4433 2.99128,2.09517 5.37488,1.95931 7.77749,-0.4433 z m -5.00606,-2.5073 c -1.10303,-1.32908 -1.07579,-1.83943 0.16442,-3.07963 2.02098,-2.02098 5.03275,-0.7539 4.64451,1.95399 -0.37654,2.62638 -3.04504,3.251 -4.80893,1.12564 z"
     id="path3007"
     inkscape:connector-curvature="0" />
</svg>
